<?xml version="1.0" encoding="utf-8"?>
<!-- Generator: Adobe Illustrator 22.1.0, SVG Export Plug-In . SVG Version: 6.00 Build 0)  -->
<svg version="1.1" id="Layer_1" xmlns="http://www.w3.org/2000/svg" xmlns:xlink="http://www.w3.org/1999/xlink" x="0px" y="0px"
	 width="64px" height="64px" viewBox="0 0 64 64" style="enable-background:new 0 0 64 64;" xml:space="preserve">
<style type="text/css">
	.st0{fill:#6DA544;}
	.st1{fill:#FFDA44;}
	.st2{fill:#F0F0F0;}
	.st3{fill:#0052B4;}
</style>
<circle class="st0" cx="32" cy="32" r="32"/>
<polygon class="st1" points="32,12.4 58.4,32 32,51.6 5.6,32 "/>
<ellipse class="st2" cx="32" cy="32" rx="11.1" ry="11.2"/>
<g>
	<path class="st3" d="M26.4,31.3c-1.9,0-3.8,0.3-5.6,0.8c0.1,6.1,5,11,11.1,11c3.8,0,7.1-1.9,9.1-4.8C37.7,34.1,32.4,31.3,26.4,31.3
		z"/>
	<path class="st3" d="M42.9,34.1c0.1-0.7,0.2-1.4,0.2-2.1c0-6.2-5-11.2-11.1-11.2c-4.6,0-8.5,2.8-10.2,6.8c1.5-0.3,3.1-0.5,4.7-0.5
		C32.9,27.1,38.7,29.8,42.9,34.1z"/>
</g>
</svg>
