<?xml version="1.0" encoding="utf-8"?>
<!-- Generator: Adobe Illustrator 22.1.0, SVG Export Plug-In . SVG Version: 6.00 Build 0)  -->
<svg version="1.1" id="Layer_1" xmlns="http://www.w3.org/2000/svg" xmlns:xlink="http://www.w3.org/1999/xlink" x="0px" y="0px"
	 width="125px" height="125px" viewBox="0 0 125 125" style="enable-background:new 0 0 125 125;" xml:space="preserve">
<style type="text/css">
	.st0{fill:none;stroke:#424242;stroke-width:1.3;stroke-miterlimit:10;}
	.st1{fill:none;stroke:#424242;stroke-width:1.3;}
</style>
<g id="twisted-t">
	<g id="outlined-white">
		<g id="group" transform="translate(77.000000, 30.000000)">
			<path id="Shape" class="st0" d="M9.3-22.7l19.5,10.8v23.5L9.3,0.8V-22.7z M27.3,13.9L8,24.6l-0.2-0.2l-19.1-10.5L7.9,3.2
				L27.3,13.9z M-36.6,49.2L-56,38.5l18.2-10l0.1,0.7c0.6,4.2,2.3,9.5,5.5,17.2l0.1,0.4L-36.6,49.2z M-35.2,76.8v-0.3
				c0.3-5.6,3.7-14.1,6.5-20.3l0.4-0.9l1.1,2.6c3.5,7.5,9.9,21.3,11,28.7l0.2,0.9L-35.2,76.8z M6.5,76.5v0.3l-19.6,10.8l-0.1-0.7
				c-1.1-7.8-6.6-20.2-12.4-32.5c-9.7-20.5-9.6-25.9-9.5-30.5l0,0l-22.4,12.3V12.8L6.5-22.6V0.8l-22.2,12.3v0.2
				c0,2.9-0.2,8.9,11.3,33C2.7,61.3,6.2,70.9,6.5,76.5L6.5,76.5z M0,47.5l-0.5,1l-0.5-1c-0.4-1-1-2.3-1.8-4
				c-3.3-7.2-8.9-19.3-9.9-26.2l-0.1-1L6.5,27v0.3C6.1,33,2.8,41.1,0,47.5L0,47.5z"/>
			<path id="Shape_1_" class="st1" d="M9.3-22.7l19.5,10.8v23.5L9.3,0.8V-22.7z M27.3,13.9L8,24.6l-0.2-0.2l-19.1-10.5L7.9,3.2
				L27.3,13.9z M-36.6,49.2L-56,38.5l18.2-10l0.1,0.7c0.6,4.2,2.3,9.5,5.5,17.2l0.1,0.4L-36.6,49.2z M-35.2,76.8v-0.3
				c0.3-5.6,3.7-14.1,6.5-20.3l0.4-0.9l1.1,2.6c3.5,7.5,9.9,21.3,11,28.7l0.2,0.9L-35.2,76.8z M6.5,76.5v0.3l-19.6,10.8l-0.1-0.7
				c-1.1-7.8-6.6-20.2-12.4-32.5c-9.7-20.5-9.6-25.9-9.5-30.5l0,0l-22.4,12.3V12.8L6.5-22.6V0.8l-22.2,12.3v0.2
				c0,2.9-0.2,8.9,11.3,33C2.7,61.3,6.2,70.9,6.5,76.5L6.5,76.5z M0,47.5l-0.5,1l-0.5-1c-0.4-1-1-2.3-1.8-4
				c-3.3-7.2-8.9-19.3-9.9-26.2l-0.1-1L6.5,27v0.3C6.1,33,2.8,41.1,0,47.5L0,47.5z"/>
		</g>
	</g>
</g>
</svg>
