<?xml version="1.0" encoding="utf-8"?>
<!-- Generator: Adobe Illustrator 22.1.0, SVG Export Plug-In . SVG Version: 6.00 Build 0)  -->
<svg version="1.1" id="Layer_1" xmlns="http://www.w3.org/2000/svg" xmlns:xlink="http://www.w3.org/1999/xlink" x="0px" y="0px"
	 width="64px" height="64px" viewBox="0 0 64 64" style="enable-background:new 0 0 64 64;" xml:space="preserve">
<style type="text/css">
	.st0{fill:#F0F0F0;}
	.st1{fill:#0052B4;}
	.st2{fill:#D80027;}
</style>
<circle class="st0" cx="32" cy="32" r="32"/>
<g>
	<path class="st1" d="M6.6,12.5c-2.5,3.3-4.4,7-5.5,11.1h16.6L6.6,12.5z"/>
	<path class="st1" d="M62.9,23.7c-1.1-4.1-3-7.9-5.5-11.1L46.3,23.7H62.9z"/>
	<path class="st1" d="M1.1,40.3c1.1,4.1,3,7.9,5.5,11.1l11.1-11.1H1.1L1.1,40.3z"/>
	<path class="st1" d="M51.5,6.6c-3.3-2.5-7-4.4-11.1-5.5v16.6L51.5,6.6z"/>
	<path class="st1" d="M12.5,57.4c3.3,2.5,7,4.4,11.1,5.5V46.3L12.5,57.4z"/>
	<path class="st1" d="M23.7,1.1c-4.1,1.1-7.9,3-11.1,5.5l11.1,11.1V1.1z"/>
	<path class="st1" d="M40.3,62.9c4.1-1.1,7.9-3,11.1-5.5L40.3,46.3L40.3,62.9L40.3,62.9z"/>
	<path class="st1" d="M46.3,40.3l11.1,11.1c2.5-3.3,4.4-7,5.5-11.1H46.3z"/>
</g>
<g>
	<path class="st2" d="M63.7,27.8H36.2h0V0.3C34.8,0.1,33.4,0,32,0c-1.4,0-2.8,0.1-4.2,0.3v27.6v0H0.3C0.1,29.2,0,30.6,0,32
		c0,1.4,0.1,2.8,0.3,4.2h27.6h0v27.6c1.4,0.2,2.8,0.3,4.2,0.3c1.4,0,2.8-0.1,4.2-0.3V36.2v0h27.6c0.2-1.4,0.3-2.8,0.3-4.2
		C64,30.6,63.9,29.2,63.7,27.8z"/>
	<path class="st2" d="M40.3,40.3L40.3,40.3l14.3,14.3c0.7-0.7,1.3-1.3,1.9-2.1L44.3,40.3L40.3,40.3L40.3,40.3L40.3,40.3z"/>
	<path class="st2" d="M23.7,40.3L23.7,40.3L9.4,54.6c0.7,0.7,1.3,1.3,2.1,1.9l12.2-12.2L23.7,40.3L23.7,40.3z"/>
	<path class="st2" d="M23.7,23.7L23.7,23.7L9.4,9.4c-0.7,0.7-1.3,1.3-1.9,2.1l12.2,12.2L23.7,23.7L23.7,23.7z"/>
	<path class="st2" d="M40.3,23.7L40.3,23.7L54.6,9.4c-0.7-0.7-1.3-1.3-2.1-1.9L40.3,19.7V23.7z"/>
</g>
</svg>
