<?xml version="1.0" encoding="utf-8"?>
<!-- Generator: Adobe Illustrator 22.1.0, SVG Export Plug-In . SVG Version: 6.00 Build 0)  -->
<svg version="1.1" id="Layer_1" xmlns="http://www.w3.org/2000/svg" xmlns:xlink="http://www.w3.org/1999/xlink" x="0px" y="0px"
	 width="60px" height="60px" viewBox="0 0 60 60" style="enable-background:new 0 0 60 60;" xml:space="preserve">
<style type="text/css">
	.st0{fill:#FFFFFF;}
</style>
<title></title>
<desc></desc>
<g id="People">
	<g id="Icon-28">
		<path id="imac" class="st0" d="M39,54h-3v-5c0-0.6-0.4-1-1-1s-1,0.4-1,1v6c0,0.6,0.4,1,1,1h4c1.1,0,2.3,0.9,2.8,2H18.2
			c0.5-1.1,1.7-2,2.8-2h10c0.6,0,1-0.4,1-1s-0.4-1-1-1h-5v-5c0-0.6-0.4-1-1-1s-1,0.4-1,1v5h-3c-2.6,0-5,2.4-5,5c0,0.6,0.4,1,1,1h26
			c0.6,0,1-0.4,1-1C44,56.4,41.6,54,39,54 M28,40c0,1.1,0.9,2,2,2s2-0.9,2-2s-0.9-2-2-2S28,38.9,28,40 M60,5v36c0,2.8-2.2,5-5,5H5
			c-2.8,0-5-2.2-5-5v-6c0-0.6,0.4-1,1-1h54c0.6,0,1,0.4,1,1s-0.4,1-1,1H2v5c0,1.7,1.3,3,3,3h50c1.7,0,3-1.3,3-3V5c0-1.7-1.3-3-3-3H5
			C3.3,2,2.1,3.6,2,5.1L2,31c0,0.6-0.4,1-1,1s-1-0.4-1-1V5c0.2-2.8,2.4-5,5-5h50C57.8,0,60,2.2,60,5"/>
	</g>
</g>
</svg>
