<svg width="369" height="279" xmlns="http://www.w3.org/2000/svg" xmlns:xlink="http://www.w3.org/1999/xlink"><svg version="1.1" id="about_me_gray" x="215" y="138" width="64" height="64" xml:space="preserve" xmlns="http://www.w3.org/2000/svg"><path d="M45.7 40.9c3.3 0 4.3-1.5 4.5-1.4.2.1 1.1 1.7.6 2.4-.5.7-3.9 1.7-7.6 1.1-3.8-.6-5.1-3.2-5-7.4.2-4.2 2.6-6.8 6.8-6.8 2.4 0 5.7.8 5.7 3.8v2.7c0 .9-.7 1.4-2 1.4h-6.1s-.2 4.2 3.1 4.2zm-3.1-6.1h3.7s.5 0 .6-.4c0-1.1-.3-3.3-2.1-3.3-2.6.1-2.2 3.7-2.2 3.7zm-21.1 8.1h-6.1c-1-1.7.4-1.9 1.4-1.8-.1-1.3 1.2-9.9-.6-9.9-1.8 0-1.7-1.9-1-2 .7 0 3.3-.3 4.1-.3.8 0 .5.6.6 1.4 5.2-3.1 7.8-1.3 8.6 0 4.2-3.6 8.2-.9 8.2.8 0 1.7.3 8.1.3 8.9 0 .8 0 1.1.8 1.1.9 0 .4 1.7-.3 1.7h-3.7c-.5 0-1-.4-1-1.1s-.1-5.2-.1-8.2c0-3-4-2.3-4 0V41H30c1 0 .7 1.8-.1 1.8-1 0-2.5.1-5.2.1-1.7 0-1.8-1.8 0-1.8v-7.5c0-2.9-3.8-3.2-3.8.1v7.2c2 0 1.5 2 .6 2zM32 64c-5.5 0-10.7-1.4-15.3-3.9 6.3-1.5 14.1-5.8 14.1-5.8 11.3 0 27.3-6.3 27.2-17.8-.2-11.5-13.4-19.4-26.3-19.4-12.9.1-24.1 8.3-24.2 18.4-.1 10.2 12.6 16.8 12.6 16.8-.2 1.6-3.4 4.4-5.8 6.3C5.7 52.9 0 43.1 0 32 0 14.3 14.3 0 32 0s32 14.3 32 32-14.3 32-32 32z" fill="#424242"/></svg><svg version="1.1" id="brazil" y="215" width="64" height="64" xml:space="preserve" xmlns="http://www.w3.org/2000/svg"><circle cx="32" cy="32" r="32" fill="#6da544"/><path d="M32 12.4L58.4 32 32 51.6 5.6 32z" fill="#ffda44"/><ellipse cx="32" cy="32" rx="11.1" ry="11.2" fill="#f0f0f0"/><path d="M26.4 31.3c-1.9 0-3.8.3-5.6.8.1 6.1 5 11 11.1 11 3.8 0 7.1-1.9 9.1-4.8-3.3-4.2-8.6-7-14.6-7zm16.5 2.8c.1-.7.2-1.4.2-2.1 0-6.2-5-11.2-11.1-11.2-4.6 0-8.5 2.8-10.2 6.8 1.5-.3 3.1-.5 4.7-.5 6.4 0 12.2 2.7 16.4 7z" fill="#0052b4"/></svg><svg version="1.1" id="facebook" x="125" width="90" height="90" xml:space="preserve" xmlns="http://www.w3.org/2000/svg"><path d="M70.7 12H17.4c-3 0-5.3 2.4-5.3 5.3v53.3c0 3 2.4 5.3 5.3 5.3h53.3c3 0 5.3-2.4 5.3-5.3V17.4c0-3-2.3-5.4-5.3-5.4zM44 73.9V52.6h-8.5V44H44v-7.5c0-6.1 4.7-11.2 10.7-11.7h9.6v8.5h-8.5c-1.8 0-3.2 1.4-3.2 3.2V44h10.7v8.5H52.6v21.3l-8.6.1zm29.9-3.2c0 1.8-1.4 3.2-3.2 3.2h-16V54.7h10.7V41.9H54.7v-5.3c0-.6.4-1.1 1.1-1.1h10.7V22.7H54.6c-7.2.6-12.7 6.7-12.7 13.9v5.3h-8.5v12.8h8.5v19.2H17.4c-1.8 0-3.2-1.4-3.2-3.2V17.4c0-1.8 1.4-3.2 3.2-3.2h53.3c1.8 0 3.2 1.4 3.2 3.2v53.3z" transform="translate(1 1)" fill="#fff"/></svg><svg version="1.1" id="github" y="125" width="90" height="90" xml:space="preserve" xmlns="http://www.w3.org/2000/svg"><path id="dGithub__x28_alt_x29_" d="M62.6 15.7c1 2.3 1.6 6 .7 8.8 3.9 3.3 5.3 11.5 3.4 18.2 5.6.4 12.2-.2 16.6 1.5-4-.5-9.5-1.5-14.7-1.2-1 .1-2.5 0-2.4 1.4 6 .5 12 1 16.9 2.6-4.9-.8-10.9-2-16.9-2.2-2.5 4.9-7.6 7.4-14.5 7.9.8 1.6 2.2 2.3 2.6 4.8.5 3.9-.9 9.7.5 12.3.6 1.3 1.7 1.3 2.4 2.4-1.7 2-6-.3-6.5-2.4-.8-3.7 1.3-9.4-1-11.8.2 4-.9 9.6.2 13.1.4 1.4 1.7 2 1.4 3.2-8 .8-4.6-10.3-5.9-16.8-1.2.1-.7 1.8-.7 2.6 0 6.4 1.3 15.1-5.6 14.3-.2-1.4.9-1.8 1.4-3.1 1.3-3.6-.3-8.9.3-13.3-2.6 2 .3 8.9-1.4 12.5-.9 2-4 2.9-6.3 2 .3-1.5 1.9-1.3 2.5-2.7.9-2 0-4.8.3-7.7-4.8.9-8.7-.2-10.5-3.2-.9-1.4-1-3-2-4.2-1-1.2-2.5-1.4-3.1-3.1 6-1.3 6.3 6.4 11.7 6.5 1.7.1 2.6-.5 4.1-.9.4-2 1.4-3.4 2.7-4.4-6.7-.9-12.3-3.1-14.9-8.1-6.1.2-11.7 1-16.9 2.3 4.7-1.7 10.5-2.3 16.7-2.5-.3-2.2-3.6-1.6-5.6-1.5-3.7.3-8.4.7-11.4 1.3 4.2-1.5 10.3-1.4 16.1-1.4-1.8-5.5-1.2-14.4 2.7-17.7-1.1-2.7-.8-7.3.7-9.4 4.3.2 7 2 9.7 3.9 3.4-.9 6.9-1.4 11.5-1.2 2 .1 4 1 5.4.9s3-1.7 4.4-2.4c1.8-1 3.4-1.2 5.4-1.3z" fill="#fff"/></svg><svg version="1.1" id="instagram" x="90" y="125" width="90" height="90" xml:space="preserve" xmlns="http://www.w3.org/2000/svg"><style>.est0{fill:#fff}</style><path class="est0" d="M57.8 12H30.2C20.2 12 12 20.2 12 30.2v27.5c0 10 8.2 18.2 18.2 18.2h27.5c10 0 18.2-8.2 18.2-18.2V30.2C76 20.2 67.8 12 57.8 12zm16.1 45.8c0 8.9-7.2 16.1-16.1 16.1H30.2c-8.9 0-16.1-7.2-16.1-16.1V30.2c0-8.9 7.2-16.1 16.1-16.1h27.5c8.8 0 16.1 7.2 16.1 16.1l.1 27.6z" transform="translate(1 1)"/><path class="est0" d="M57.8 18.4H30.2c-6.5 0-11.8 5.3-11.8 11.8v27.5c0 6.5 5.3 11.8 11.8 11.8h27.5c6.5 0 11.8-5.3 11.8-11.8V30.2c.1-6.5-5.2-11.8-11.7-11.8zm9.7 39.4c0 5.3-4.4 9.7-9.7 9.7H30.2c-5.3 0-9.7-4.4-9.7-9.7V30.2c0-5.3 4.4-9.7 9.7-9.7h27.5c5.3 0 9.7 4.4 9.7 9.7l.1 27.6z" transform="translate(1 1)"/><path class="est0" d="M44 26.9c-9.4 0-17.1 7.7-17.1 17.1S34.6 61.1 44 61.1 61.1 53.4 61.1 44 53.4 26.9 44 26.9zm0 32c-8.2 0-14.9-6.7-14.9-14.9S35.8 29.1 44 29.1 58.9 35.8 58.9 44 52.2 58.9 44 58.9z" transform="translate(1 1)"/><path class="est0" d="M44 32.3c-6.5 0-11.7 5.2-11.7 11.7S37.5 55.7 44 55.7 55.7 50.5 55.7 44 50.5 32.3 44 32.3zm0 21.3c-5.3 0-9.6-4.3-9.6-9.6s4.3-9.6 9.6-9.6 9.6 4.3 9.6 9.6-4.3 9.6-9.6 9.6zm17.1-29.9c-1.8 0-3.2 1.4-3.2 3.2s1.4 3.2 3.2 3.2 3.2-1.4 3.2-3.2c0-1.8-1.4-3.2-3.2-3.2z" transform="translate(1 1)"/></svg><svg version="1.1" id="linkedin" x="215" width="90" height="90" xml:space="preserve" xmlns="http://www.w3.org/2000/svg"><path d="M20.6 13.6c-2.3 0-4.5.9-6.1 2.4-1.7 1.7-2.6 3.8-2.6 6.1 0 2.4 1 4.5 2.6 6.1 1.6 1.6 3.8 2.6 6 2.5h.2c2.1 0 4.2-.9 5.8-2.5 1.6-1.6 2.6-3.7 2.6-6.1.1-2.2-.9-4.4-2.4-6-1.7-1.6-3.8-2.5-6.1-2.5zM25 26.7c-1.2 1.2-2.8 1.9-4.5 1.8-1.6 0-3.3-.6-4.5-1.8-1.3-1.2-1.9-2.9-1.9-4.6s.6-3.3 1.9-4.6c1.2-1.2 2.8-1.8 4.6-1.8 1.6 0 3.2.6 4.4 1.8 1.3 1.3 1.9 2.9 1.9 4.6s-.6 3.5-1.9 4.6zm-.2 6.1h-8.6c-1.7 0-3.1 1.4-3.1 3.2v37.3c0 1.7 1.5 3.2 3.2 3.2h8.5c1.7 0 3.2-1.5 3.2-3.1V36c0-1.7-1.5-3.2-3.2-3.2zm1.1 40.7c0 .5-.5 1-1.1 1h-8.5c-.5 0-1.1-.5-1.1-1.1V36c0-.5.4-1.1 1-1.1h8.6c.5 0 1.1.5 1.1 1.1v37.5zm35.2-41.7h-2.2c-4.2 0-8.1 1.8-10.7 4.7V35c0-1.1-1.1-2.1-2.1-2.1H35.4c-1 0-2.1.8-2.1 2v39.8c0 1.2 1.2 1.9 2.1 1.9h11.7c1 0 2.1-.8 2.1-1.9v-23c0-3.5 2.6-6.3 5.9-6.3 1.7 0 3.3.6 4.5 1.8 1.1 1 1.5 2.5 1.5 4.4v22.9c0 1.1 1.1 2.1 2.1 2.1h10.7c1.1 0 2.1-1.1 2.1-2.1V46.9c0-8.5-6.5-15.1-14.9-15.1zm12.8 42.5l-.1.1H63.3l-.1-22.9c0-2.6-.6-4.5-2-5.9-1.6-1.6-3.7-2.5-6-2.5-4.5.1-8 3.7-8 8.4v22.8H35.4V35H46l.1.1v6.7l2.9-2.9.1-.1c2.1-3 5.9-4.9 9.8-4.9h2.2c7.2 0 12.7 5.8 12.7 13l.1 27.4z" transform="translate(1)" fill="#fff"/></svg><svg version="1.1" id="logo_T" width="125" height="125" xml:space="preserve" xmlns="http://www.w3.org/2000/svg"><g id="gtwisted-t"><g id="goutlined-white"><g id="ggroup" transform="translate(77 30)" fill="none" stroke="#fff" stroke-width="1.3"><path id="gShape" d="M9.3-22.7l19.5 10.8v23.5L9.3.8v-23.5zm18 36.6L8 24.6l-.2-.2-19.1-10.5L7.9 3.2l19.4 10.7zm-63.9 35.3L-56 38.5l18.2-10 .1.7c.6 4.2 2.3 9.5 5.5 17.2l.1.4-4.5 2.4zm1.4 27.6v-.3c.3-5.6 3.7-14.1 6.5-20.3l.4-.9 1.1 2.6c3.5 7.5 9.9 21.3 11 28.7l.2.9-19.2-10.7zm41.7-.3v.3l-19.6 10.8-.1-.7c-1.1-7.8-6.6-20.2-12.4-32.5-9.7-20.5-9.6-25.9-9.5-30.5l-22.4 12.3V12.8l64-35.4V.8l-22.2 12.3v.2c0 2.9-.2 8.9 11.3 33 7.1 15 10.6 24.6 10.9 30.2zM0 47.5l-.5 1-.5-1c-.4-1-1-2.3-1.8-4-3.3-7.2-8.9-19.3-9.9-26.2l-.1-1L6.5 27v.3C6.1 33 2.8 41.1 0 47.5z" stroke-miterlimit="10"/><path id="gShape_1_" d="M9.3-22.7l19.5 10.8v23.5L9.3.8v-23.5zm18 36.6L8 24.6l-.2-.2-19.1-10.5L7.9 3.2l19.4 10.7zm-63.9 35.3L-56 38.5l18.2-10 .1.7c.6 4.2 2.3 9.5 5.5 17.2l.1.4-4.5 2.4zm1.4 27.6v-.3c.3-5.6 3.7-14.1 6.5-20.3l.4-.9 1.1 2.6c3.5 7.5 9.9 21.3 11 28.7l.2.9-19.2-10.7zm41.7-.3v.3l-19.6 10.8-.1-.7c-1.1-7.8-6.6-20.2-12.4-32.5-9.7-20.5-9.6-25.9-9.5-30.5l-22.4 12.3V12.8l64-35.4V.8l-22.2 12.3v.2c0 2.9-.2 8.9 11.3 33 7.1 15 10.6 24.6 10.9 30.2zM0 47.5l-.5 1-.5-1c-.4-1-1-2.3-1.8-4-3.3-7.2-8.9-19.3-9.9-26.2l-.1-1L6.5 27v.3C6.1 33 2.8 41.1 0 47.5z"/></g></g></g></svg><svg version="1.1" id="mail" x="215" y="90" width="64" height="48" xml:space="preserve" xmlns="http://www.w3.org/2000/svg"><path d="M0 0v8l32 16L64 8V0H0zm0 16v32h64V16L32 32 0 16z" fill="#2b3043"/></svg><svg version="1.1" id="my_story_gray" x="64" y="215" width="64" height="64" xml:space="preserve" xmlns="http://www.w3.org/2000/svg"><path d="M0 3v46.1c0 2.3 1.7 4.7 3.8 5.4L30.7 64V9.8L3.8.3C1.7-.5 0 .7 0 3zm33.3 6.8V64l11.3-8.6c1.8-1.2 3.3-4.1 3.3-6.3V3c0-2.3-1.5-3-3.3-1.8L33.3 9.8zM40 61.7l20.2-7.3c2.1-.7 3.8-3.1 3.8-5.4V3C64 .7 62.3-.5 60.2.2l-9.5 4.1v46.1c0 2.3-1.5 5.1-3.3 6.3l-7.4 5z" fill="#424242"/></svg><svg version="1.1" id="project_management" x="128" y="215" width="64" height="64" xml:space="preserve" xmlns="http://www.w3.org/2000/svg"><style>.jst0{fill:none;stroke:#fff;stroke-width:1.3;stroke-linejoin:round}</style><g id="j_6-Planning"><path class="jst0" d="M3 1h58c1.1 0 2 .9 2 2v58c0 1.1-.9 2-2 2H3c-1.1 0-2-.9-2-2V3c0-1.1.9-2 2-2zM1 9h62M4 5h2m2 0h2m48 0h2"/><path class="jst0" d="M24 13h16c.6 0 1 .4 1 1v8c0 .6-.4 1-1 1H24c-.6 0-1-.4-1-1v-8c0-.6.4-1 1-1zm0 15h16c.6 0 1 .4 1 1v8c0 .6-.4 1-1 1H24c-.6 0-1-.4-1-1v-8c0-.6.4-1 1-1zm4 21h8c.6 0 1 .4 1 1v8c0 .6-.4 1-1 1h-8c-.6 0-1-.4-1-1v-8c0-.6.4-1 1-1zm16 0h8c.6 0 1 .4 1 1v8c0 .6-.4 1-1 1h-8c-.6 0-1-.4-1-1v-8c0-.6.4-1 1-1zm-32 0h8c.6 0 1 .4 1 1v8c0 .6-.4 1-1 1h-8c-.6 0-1-.4-1-1v-8c0-.6.4-1 1-1zm4 0v-7h32v7M32 23v5m0 10v11m-20 9l8-8m8 8l8-8m8 8l8-8M26 18h8m2 0h2M26 33h8m2 0h2M9 13H5v4m54 0v-4h-4"/></g></svg><svg version="1.1" id="software_eng" x="192" y="215" width="64" height="64" xml:space="preserve" xmlns="http://www.w3.org/2000/svg"><style>.kst0{fill:#fff}</style><path class="kst0" d="M22.5 29.9h3.6v3.6h1.2V21.3h-4.8v1.3h3.6v6h-3.6v-6h-1.2v10.9h1.2zm8.3 0h4.8v-7.3h-1.2v6h-3.6v-6h3.6v-1.3h-4.8v12.2h1.2zm10.7 2.4h-1.2v-9.7h1.2v-1.3h-3.6v1.3h1.2v9.7h-1.2v1.2h3.6z"/><path class="kst0" d="M16.6 4.8v4.6l5.9 4.9v3.4h-4.7v3.7h-5.6l-3.2-4c.3-.4.5-.9.5-1.5 0-1.3-1.1-2.4-2.4-2.4s-2.4 1.1-2.4 2.4 1.1 2.4 2.4 2.4c.3 0 .6-.1.9-.2l3.5 4.5h6.2V25h-7.4l-2.1 2.2c-.4-.2-.8-.3-1.2-.3-1.3 0-2.4 1.1-2.4 2.4s1.1 2.4 2.4 2.4 2.4-1.1 2.4-2.4c0-.5-.1-.9-.3-1.2l1.8-1.8h6.9v6.1h-7.4l-2.1 2.2c-.4-.2-.8-.3-1.2-.3-1.3 0-2.4 1.1-2.4 2.4 0 1.3 1.1 2.4 2.4 2.4s2.4-1.1 2.4-2.4c0-.5-.1-.9-.3-1.2l1.8-1.8h6.9v3.7h4.7v1.2c-1 .3-1.8 1.2-1.8 2.4 0 1.3 1.1 2.4 2.4 2.4s2.4-1.1 2.4-2.4c0-1.1-.8-2.1-1.8-2.4v-1.2h4.7v1.2c-1 .3-1.8 1.2-1.8 2.4 0 1.3 1.1 2.4 2.4 2.4s2.4-1.1 2.4-2.4c0-1.1-.8-2.1-1.8-2.4v-1.2h4.7v1.2c-1 .3-1.8 1.2-1.8 2.4 0 1.3 1.1 2.4 2.4 2.4s2.4-1.1 2.4-2.4c0-1.1-.8-2.1-1.8-2.4v-1.2h4.7v1.2c-1 .3-1.8 1.2-1.8 2.4 0 1.3 1.1 2.4 2.4 2.4s2.4-1.1 2.4-2.4c0-1.1-.8-2.1-1.8-2.4v-1.2h4.7v-3.7h6.9l1.8 1.8c-.2.4-.3.8-.3 1.2 0 1.3 1.1 2.4 2.4 2.4s2.4-1.1 2.4-2.4c0-1.3-1.1-2.4-2.4-2.4-.4 0-.8.1-1.2.3l-2.1-2.2h-7.4V30h7.4l1.8-1.8c.4.4.9.6 1.5.6 1.3 0 2.4-1.1 2.4-2.4S58.3 24 57 24s-2.4 1.1-2.4 2.4c0 .3.1.6.2.9l-1.6 1.6h-6.9v-6.1h6.2l3.5-4.5c.3.1.6.2.9.2 1.3 0 2.4-1.1 2.4-2.4s-1.1-2.4-2.4-2.4-2.4 1.1-2.4 2.4c0 .6.2 1.1.5 1.5l-3.2 4h-5.6v-3.7h-4.7v-3.4l5.9-4.9V4.8c1-.3 1.8-1.2 1.8-2.4 0-1.3-1.1-2.4-2.4-2.4s-2.4 1.1-2.4 2.4c0 1.1.8 2.1 1.8 2.4v4.1l-5.9 4.9v3.9h-4.7v-5.8l5.9-4.8V4.8c1-.3 1.8-1.2 1.8-2.4 0-1.3-1.1-2.4-2.4-2.4s-2.4 1.1-2.4 2.4c0 1.1.8 2.1 1.8 2.4v1.7l-5.9 4.8v6.4h-4.7v-6.4l-5.9-4.8V4.8c1-.3 1.8-1.2 1.8-2.4 0-1.3-1.1-2.4-2.4-2.4s-2.4 1.1-2.4 2.4c0 1.1.8 2.1 1.8 2.4v2.3l5.9 4.8v5.8h-4.7v-3.9l-5.9-4.9V4.8c1-.3 1.8-1.2 1.8-2.4 0-1.3-1.1-2.4-2.4-2.4s-2.4 1.1-2.4 2.4c-.1 1.2.7 2.1 1.7 2.4zM7.1 17.1c-.7 0-1.2-.5-1.2-1.2s.5-1.2 1.2-1.2 1.2.5 1.2 1.2c0 .6-.5 1.2-1.2 1.2zm0 13.4c-.7 0-1.2-.5-1.2-1.2S6.5 28 7.1 28s1.2.5 1.2 1.2-.5 1.3-1.2 1.3zm0 7.3c-.7 0-1.2-.5-1.2-1.2s.5-1.2 1.2-1.2 1.2.5 1.2 1.2c0 .6-.5 1.2-1.2 1.2zm49.8-2.4c.7 0 1.2.5 1.2 1.2s-.5 1.2-1.2 1.2-1.2-.5-1.2-1.2.5-1.2 1.2-1.2zm0-10.4c.7 0 1.2.5 1.2 1.2s-.5 1.2-1.2 1.2-1.2-.5-1.2-1.2.5-1.2 1.2-1.2zm0-10.4c.7 0 1.2.5 1.2 1.2s-.5 1.2-1.2 1.2-1.2-.5-1.2-1.2c0-.6.5-1.2 1.2-1.2zM45.6 2.4c0-.7.5-1.2 1.2-1.2s1.2.6 1.2 1.2-.5 1.2-1.2 1.2-1.2-.5-1.2-1.2zm-5.9 0c0-.7.5-1.2 1.2-1.2s1.2.5 1.2 1.2-.5 1.2-1.2 1.2-1.2-.5-1.2-1.2zm-17.8 0c0-.7.5-1.2 1.2-1.2s1.2.5 1.2 1.2-.5 1.2-1.2 1.2-1.2-.5-1.2-1.2zm2.4 38.4c0 .7-.5 1.2-1.2 1.2s-1.2-.5-1.2-1.2.5-1.2 1.2-1.2 1.2.5 1.2 1.2zm5.9 0c0 .7-.5 1.2-1.2 1.2s-1.2-.5-1.2-1.2.5-1.2 1.2-1.2 1.2.5 1.2 1.2zm5.9 0c0 .7-.5 1.2-1.2 1.2s-1.2-.5-1.2-1.2.5-1.2 1.2-1.2 1.2.5 1.2 1.2zm6 0c0 .7-.5 1.2-1.2 1.2s-1.2-.5-1.2-1.2.5-1.2 1.2-1.2 1.2.5 1.2 1.2zM45 18.9V36H19V19h26zM17.2 1.2c.7 0 1.2.5 1.2 1.2s-.5 1.2-1.2 1.2S16 3.1 16 2.4s.5-1.2 1.2-1.2z"/><path class="kst0" d="M61.6 6.7h-13v1.2h13c.7 0 1.2.5 1.2 1.2v39H1.2v-39c0-.7.5-1.2 1.2-1.2h13V6.7h-13C1.1 6.7 0 7.8 0 9.1v42.7c0 1.3 1.1 2.4 2.4 2.4h22.2l-1.7 6.1H19c-1.3 0-2.4 1.1-2.4 2.4V64h30.8v-1.2c0-1.3-1.1-2.4-2.4-2.4h-3.9l-1.7-6.1h22.2c1.3 0 2.4-1.1 2.4-2.4V9.2c0-1.4-1.1-2.5-2.4-2.5zM41.5 61.6H45c.7 0 1.2.5 1.2 1.2H17.8c0-.7.5-1.2 1.2-1.2h22.5zm-1.6-1.3H24.1l1.7-6.1h12.4l1.7 6.1zm22.9-8.5c0 .7-.5 1.2-1.2 1.2H2.4c-.7 0-1.2-.5-1.2-1.2v-2.4h61.6v2.4z"/><path class="kst0" d="M19 6.7v1.2h2.6l-.3-.2v-1zm17.6 1.2l1.5-1.2H25.9l1.5 1.2zM45 6.7h-2.3v1l-.3.2H45zm-11.4 3.7l1.5-1.3h-6.2l1.5 1.3z"/><path class="kst0" d="M2.4 9.1v36.6h59.2V9.1h-13v.9l-.4.4h12.2v34.1H3.6V10.4h12.2l-.4-.4v-.9z"/><path class="kst0" d="M24.6 10.4l-1.5-1.3H20l1.5 1.3zm14.8 0h3.1L44 9.1h-3.1z"/></svg><svg version="1.1" id="united-kingdom" x="305" width="64" height="64" xml:space="preserve" xmlns="http://www.w3.org/2000/svg"><style>.lst2{fill:#d80027}</style><circle cx="32" cy="32" r="32" fill="#f0f0f0"/><path d="M6.6 12.5c-2.5 3.3-4.4 7-5.5 11.1h16.6L6.6 12.5zm56.3 11.2c-1.1-4.1-3-7.9-5.5-11.1L46.3 23.7h16.6zM1.1 40.3c1.1 4.1 3 7.9 5.5 11.1l11.1-11.1H1.1zM51.5 6.6c-3.3-2.5-7-4.4-11.1-5.5v16.6L51.5 6.6zm-39 50.8c3.3 2.5 7 4.4 11.1 5.5V46.3L12.5 57.4zM23.7 1.1c-4.1 1.1-7.9 3-11.1 5.5l11.1 11.1V1.1zm16.6 61.8c4.1-1.1 7.9-3 11.1-5.5L40.3 46.3v16.6zm6-22.6l11.1 11.1c2.5-3.3 4.4-7 5.5-11.1H46.3z" fill="#0052b4"/><path class="lst2" d="M63.7 27.8H36.2V.3a29.663 29.663 0 0 0-8.4 0v27.6H.3C.1 29.2 0 30.6 0 32c0 1.4.1 2.8.3 4.2h27.6v27.6a29.663 29.663 0 0 0 8.4 0V36.2h27.6c.2-1.4.3-2.8.3-4.2-.2-1.4-.3-2.8-.5-4.2z"/><path class="lst2" d="M40.3 40.3l14.3 14.3c.7-.7 1.3-1.3 1.9-2.1L44.3 40.3h-4zm-16.6 0L9.4 54.6c.7.7 1.3 1.3 2.1 1.9l12.2-12.2v-4zm0-16.6L9.4 9.4c-.7.7-1.3 1.3-1.9 2.1l12.2 12.2h4zm16.6 0L54.6 9.4c-.7-.7-1.3-1.3-2.1-1.9L40.3 19.7v4z"/></svg><svg version="1.1" id="web_des" x="305" y="128" width="60" height="60" xml:space="preserve" xmlns="http://www.w3.org/2000/svg"><g id="mPeople"><g id="mIcon-28"><path id="mimac" d="M39 54h-3v-5c0-.6-.4-1-1-1s-1 .4-1 1v6c0 .6.4 1 1 1h4c1.1 0 2.3.9 2.8 2H18.2c.5-1.1 1.7-2 2.8-2h10c.6 0 1-.4 1-1s-.4-1-1-1h-5v-5c0-.6-.4-1-1-1s-1 .4-1 1v5h-3c-2.6 0-5 2.4-5 5 0 .6.4 1 1 1h26c.6 0 1-.4 1-1 0-2.6-2.4-5-5-5M28 40c0 1.1.9 2 2 2s2-.9 2-2-.9-2-2-2-2 .9-2 2M60 5v36c0 2.8-2.2 5-5 5H5c-2.8 0-5-2.2-5-5v-6c0-.6.4-1 1-1h54c.6 0 1 .4 1 1s-.4 1-1 1H2v5c0 1.7 1.3 3 3 3h50c1.7 0 3-1.3 3-3V5c0-1.7-1.3-3-3-3H5C3.3 2 2.1 3.6 2 5.1V31c0 .6-.4 1-1 1s-1-.4-1-1V5c.2-2.8 2.4-5 5-5h50c2.8 0 5 2.2 5 5" fill="#fff"/></g></g></svg><svg version="1.1" id="web_dev" x="305" y="64" width="64" height="64" xml:space="preserve" xmlns="http://www.w3.org/2000/svg"><path d="M17 44.7L4.3 32m0 0L17 19.3m30 0L59.7 32m0 0L47 44.7m-26 8.1l22.8-41.6" fill="none" stroke="#fff" stroke-width="1.5" stroke-linecap="square" stroke-miterlimit="10"/></svg></svg>