<?xml version="1.0" encoding="utf-8"?>
<!-- Generator: Adobe Illustrator 22.1.0, SVG Export Plug-In . SVG Version: 6.00 Build 0)  -->
<svg version="1.1" id="Layer_1" xmlns="http://www.w3.org/2000/svg" xmlns:xlink="http://www.w3.org/1999/xlink" x="0px" y="0px"
	 width="64px" height="64px" viewBox="0 0 64 64" style="enable-background:new 0 0 64 64;" xml:space="preserve">
<style type="text/css">
	.st0{fill:#424242;}
</style>
<path class="st0" d="M45.7,40.9c3.3,0,4.3-1.5,4.5-1.4c0.2,0.1,1.1,1.7,0.6,2.4c-0.5,0.7-3.9,1.7-7.6,1.1c-3.8-0.6-5.1-3.2-5-7.4
	c0.2-4.2,2.6-6.8,6.8-6.8c2.4,0,5.7,0.8,5.7,3.8c0,1.3,0,1.8,0,2.7c0,0.9-0.7,1.4-2,1.4c-0.5,0-6.1,0-6.1,0S42.4,40.9,45.7,40.9z
	 M42.6,34.8h3.7c0,0,0.5,0,0.6-0.4c0-1.1-0.3-3.3-2.1-3.3C42.2,31.2,42.6,34.8,42.6,34.8z M21.5,42.9c-0.9,0-6.1,0-6.1,0
	c-1-1.7,0.4-1.9,1.4-1.8c-0.1-1.3,1.2-9.9-0.6-9.9c-1.8,0-1.7-1.9-1-2c0.7,0,3.3-0.3,4.1-0.3c0.8,0,0.5,0.6,0.6,1.4
	c5.2-3.1,7.8-1.3,8.6,0c4.2-3.6,8.2-0.9,8.2,0.8c0,1.7,0.3,8.1,0.3,8.9c0,0.8,0,1.1,0.8,1.1c0.9,0,0.4,1.7-0.3,1.7
	c-0.7,0-3.2,0-3.7,0c-0.5,0-1-0.4-1-1.1s-0.1-5.2-0.1-8.2c0-3-4-2.3-4,0c0,2.3,0,7.5,0,7.5s0.2,0,1.3,0c1,0,0.7,1.8-0.1,1.8
	c-1,0-2.5,0.1-5.2,0.1c-1.7,0-1.8-1.8,0-1.8c0-0.8,0-5,0-7.5c0-2.9-3.8-3.2-3.8,0.1c0,0,0,4.9,0,7.2C22.9,40.9,22.4,42.9,21.5,42.9z
	 M32,64c-5.5,0-10.7-1.4-15.3-3.9c6.3-1.5,14.1-5.8,14.1-5.8c11.3,0,27.3-6.3,27.2-17.8C57.8,25,44.6,17.1,31.7,17.1
	C18.8,17.2,7.6,25.4,7.5,35.5C7.4,45.7,20.1,52.3,20.1,52.3c-0.2,1.6-3.4,4.4-5.8,6.3C5.7,52.9,0,43.1,0,32C0,14.3,14.3,0,32,0
	s32,14.3,32,32S49.7,64,32,64z"/>
</svg>
