<?xml version="1.0" encoding="utf-8"?>
<!-- Generator: Adobe Illustrator 22.1.0, SVG Export Plug-In . SVG Version: 6.00 Build 0)  -->
<svg version="1.1" id="Layer_1" xmlns="http://www.w3.org/2000/svg" xmlns:xlink="http://www.w3.org/1999/xlink" x="0px" y="0px"
	 width="90px" height="90px" viewBox="0 0 90 90" style="enable-background:new 0 0 90 90;" xml:space="preserve">
<style type="text/css">
	.st0{fill:#FFFFFF;}
</style>
<g transform="translate(1 1)">
	<g>
		<path class="st0" d="M70.7,12H17.4c-3,0-5.3,2.4-5.3,5.3v53.3c0,3,2.4,5.3,5.3,5.3h24.5h12.8h16c3,0,5.3-2.4,5.3-5.3V17.4
			C76,14.4,73.7,12,70.7,12z M44,73.9V52.6h-8.5V44H44v-7.5c0-6.1,4.7-11.2,10.7-11.7h9.6v8.5h-8.5c-1.8,0-3.2,1.4-3.2,3.2V44h10.7
			v8.5H52.6v21.3L44,73.9L44,73.9z M73.9,70.7c0,1.8-1.4,3.2-3.2,3.2h-16V54.7h10.7V41.9H54.7v-5.3c0-0.6,0.4-1.1,1.1-1.1h10.7V22.7
			H54.6c-7.2,0.6-12.7,6.7-12.7,13.9v5.3h-8.5v12.8h8.5v19.2H17.4c-1.8,0-3.2-1.4-3.2-3.2V17.4c0-1.8,1.4-3.2,3.2-3.2h53.3
			c1.8,0,3.2,1.4,3.2,3.2L73.9,70.7L73.9,70.7z"/>
	</g>
</g>
</svg>
