<?xml version="1.0" encoding="utf-8"?>
<!-- Generator: Adobe Illustrator 22.1.0, SVG Export Plug-In . SVG Version: 6.00 Build 0)  -->
<svg version="1.1" id="Capa_1" xmlns="http://www.w3.org/2000/svg" xmlns:xlink="http://www.w3.org/1999/xlink" x="0px" y="0px"
	 width="90px" height="90px" viewBox="0 0 90 90" style="enable-background:new 0 0 90 90;" xml:space="preserve">
<style type="text/css">
	.st0{fill:#FFFFFF;}
</style>
<g>
	<path id="Github__x28_alt_x29_" class="st0" d="M62.6,15.7c1,2.3,1.6,6,0.7,8.8c3.9,3.3,5.3,11.5,3.4,18.2
		c5.6,0.4,12.2-0.2,16.6,1.5c-4-0.5-9.5-1.5-14.7-1.2c-1,0.1-2.5,0-2.4,1.4c6,0.5,12,1,16.9,2.6c-4.9-0.8-10.9-2-16.9-2.2
		c-2.5,4.9-7.6,7.4-14.5,7.9c0.8,1.6,2.2,2.3,2.6,4.8c0.5,3.9-0.9,9.7,0.5,12.3c0.6,1.3,1.7,1.3,2.4,2.4c-1.7,2-6-0.3-6.5-2.4
		c-0.8-3.7,1.3-9.4-1-11.8c0.2,4-0.9,9.6,0.2,13.1c0.4,1.4,1.7,2,1.4,3.2c-8,0.8-4.6-10.3-5.9-16.8c-1.2,0.1-0.7,1.8-0.7,2.6
		c0,6.4,1.3,15.1-5.6,14.3c-0.2-1.4,0.9-1.8,1.4-3.1c1.3-3.6-0.3-8.9,0.3-13.3c-2.6,2,0.3,8.9-1.4,12.5c-0.9,2-4,2.9-6.3,2
		c0.3-1.5,1.9-1.3,2.5-2.7c0.9-2,0-4.8,0.3-7.7c-4.8,0.9-8.7-0.2-10.5-3.2c-0.9-1.4-1-3-2-4.2c-1-1.2-2.5-1.4-3.1-3.1
		c6-1.3,6.3,6.4,11.7,6.5c1.7,0.1,2.6-0.5,4.1-0.9c0.4-2,1.4-3.4,2.7-4.4c-6.7-0.9-12.3-3.1-14.9-8.1C17.8,44.9,12.2,45.7,7,47
		c4.7-1.7,10.5-2.3,16.7-2.5c-0.3-2.2-3.6-1.6-5.6-1.5c-3.7,0.3-8.4,0.7-11.4,1.3c4.2-1.5,10.3-1.4,16.1-1.4
		c-1.8-5.5-1.2-14.4,2.7-17.7c-1.1-2.7-0.8-7.3,0.7-9.4c4.3,0.2,7,2,9.7,3.9c3.4-0.9,6.9-1.4,11.5-1.2c2,0.1,4,1,5.4,0.9
		s3-1.7,4.4-2.4C59,16,60.6,15.8,62.6,15.7z"/>
</g>
</svg>
