<?xml version="1.0" encoding="utf-8"?>
<!-- Generator: Adobe Illustrator 22.1.0, SVG Export Plug-In . SVG Version: 6.00 Build 0)  -->
<svg version="1.1" id="Layer_1" xmlns="http://www.w3.org/2000/svg" xmlns:xlink="http://www.w3.org/1999/xlink" x="0px" y="0px"
	 width="90px" height="90px" viewBox="0 0 90 90" style="enable-background:new 0 0 90 90;" xml:space="preserve">
<style type="text/css">
	.st0{fill:#FFFFFF;}
</style>
<g transform="translate(1 1)">
	<g>
		<g>
			<path class="st0" d="M57.8,12H30.2C20.2,12,12,20.2,12,30.2v27.5c0,10,8.2,18.2,18.2,18.2h27.5c10,0,18.2-8.2,18.2-18.2V30.2
				C76,20.2,67.8,12,57.8,12z M73.9,57.8c0,8.9-7.2,16.1-16.1,16.1H30.2c-8.9,0-16.1-7.2-16.1-16.1V30.2c0-8.9,7.2-16.1,16.1-16.1
				h27.5c8.8,0,16.1,7.2,16.1,16.1L73.9,57.8L73.9,57.8z"/>
			<path class="st0" d="M57.8,18.4H30.2c-6.5,0-11.8,5.3-11.8,11.8v27.5c0,6.5,5.3,11.8,11.8,11.8h27.5c6.5,0,11.8-5.3,11.8-11.8
				V30.2C69.6,23.7,64.3,18.4,57.8,18.4z M67.5,57.8c0,5.3-4.4,9.7-9.7,9.7H30.2c-5.3,0-9.7-4.4-9.7-9.7V30.2c0-5.3,4.4-9.7,9.7-9.7
				h27.5c5.3,0,9.7,4.4,9.7,9.7L67.5,57.8L67.5,57.8z"/>
			<path class="st0" d="M44,26.9c-9.4,0-17.1,7.7-17.1,17.1S34.6,61.1,44,61.1S61.1,53.4,61.1,44S53.4,26.9,44,26.9z M44,58.9
				c-8.2,0-14.9-6.7-14.9-14.9S35.8,29.1,44,29.1S58.9,35.8,58.9,44S52.2,58.9,44,58.9z"/>
			<path class="st0" d="M44,32.3c-6.5,0-11.7,5.2-11.7,11.7S37.5,55.7,44,55.7S55.7,50.5,55.7,44S50.5,32.3,44,32.3z M44,53.6
				c-5.3,0-9.6-4.3-9.6-9.6s4.3-9.6,9.6-9.6s9.6,4.3,9.6,9.6S49.3,53.6,44,53.6z"/>
			<path class="st0" d="M61.1,23.7c-1.8,0-3.2,1.4-3.2,3.2s1.4,3.2,3.2,3.2s3.2-1.4,3.2-3.2C64.3,25.1,62.9,23.7,61.1,23.7z"/>
		</g>
	</g>
</g>
</svg>
