<?xml version="1.0" encoding="utf-8"?>
<!-- Generator: Adobe Illustrator 22.1.0, SVG Export Plug-In . SVG Version: 6.00 Build 0)  -->
<svg version="1.1" id="Layer_1" xmlns="http://www.w3.org/2000/svg" xmlns:xlink="http://www.w3.org/1999/xlink" x="0px" y="0px"
	 width="90px" height="90px" viewBox="0 0 90 90" style="enable-background:new 0 0 90 90;" xml:space="preserve">
<style type="text/css">
	.st0{fill:#FFFFFF;}
</style>
<g transform="translate(1)">
	<g>
		<g>
			<path class="st0" d="M20.6,13.6c-2.3,0-4.5,0.9-6.1,2.4c-1.7,1.7-2.6,3.8-2.6,6.1c0,2.4,1,4.5,2.6,6.1c1.6,1.6,3.8,2.6,6,2.5
				c0,0,0.1,0,0.2,0c2.1,0,4.2-0.9,5.8-2.5c1.6-1.6,2.6-3.7,2.6-6.1c0.1-2.2-0.9-4.4-2.4-6C25,14.5,22.9,13.6,20.6,13.6z M25,26.7
				c-1.2,1.2-2.8,1.9-4.5,1.8c-1.6,0-3.3-0.6-4.5-1.8c-1.3-1.2-1.9-2.9-1.9-4.6s0.6-3.3,1.9-4.6c1.2-1.2,2.8-1.8,4.6-1.8
				c1.6,0,3.2,0.6,4.4,1.8c1.3,1.3,1.9,2.9,1.9,4.6S26.3,25.6,25,26.7z"/>
			<path class="st0" d="M24.8,32.8h-8.6c-1.7,0-3.1,1.4-3.1,3.2v37.3c0,1.7,1.5,3.2,3.2,3.2h8.5c1.7,0,3.2-1.5,3.2-3.1V36
				C28,34.3,26.5,32.8,24.8,32.8z M25.9,73.5c0,0.5-0.5,1-1.1,1h-8.5c-0.5,0-1.1-0.5-1.1-1.1V36c0-0.5,0.4-1.1,1-1.1h8.6
				c0.5,0,1.1,0.5,1.1,1.1C25.9,36,25.9,73.5,25.9,73.5z"/>
			<path class="st0" d="M61.1,31.8h-2.2c-4.2,0-8.1,1.8-10.7,4.7V35c0-1.1-1.1-2.1-2.1-2.1H35.4c-1,0-2.1,0.8-2.1,2v39.8
				c0,1.2,1.2,1.9,2.1,1.9h11.7c1,0,2.1-0.8,2.1-1.9v-23c0-3.5,2.6-6.3,5.9-6.3c1.7,0,3.3,0.6,4.5,1.8c1.1,1,1.5,2.5,1.5,4.4v22.9
				c0,1.1,1.1,2.1,2.1,2.1h10.7c1.1,0,2.1-1.1,2.1-2.1V46.9C76,38.4,69.5,31.8,61.1,31.8z M73.9,74.3l-0.1,0.1H63.3l-0.1-22.9
				c0-2.6-0.6-4.5-2-5.9c-1.6-1.6-3.7-2.5-6-2.5c-4.5,0.1-8,3.7-8,8.4v22.8H35.4V35H46l0.1,0.1v6.7l2.9-2.9l0.1-0.1
				c2.1-3,5.9-4.9,9.8-4.9h2.2c7.2,0,12.7,5.8,12.7,13L73.9,74.3L73.9,74.3z"/>
		</g>
	</g>
</g>
</svg>
