<?xml version="1.0" encoding="utf-8"?>
<!-- Generator: Adobe Illustrator 22.1.0, SVG Export Plug-In . SVG Version: 6.00 Build 0)  -->
<svg version="1.1" id="Layer_1" xmlns="http://www.w3.org/2000/svg" xmlns:xlink="http://www.w3.org/1999/xlink" x="0px" y="0px"
	 width="64px" height="64px" viewBox="0 0 64 64" style="enable-background:new 0 0 64 64;" xml:space="preserve">
<style type="text/css">
	.st0{fill:#424242;}
</style>
<g>
	<path class="st0" d="M0,3v46.1c0,2.3,1.7,4.7,3.8,5.4L30.7,64V9.8L3.8,0.3C1.7-0.5,0,0.7,0,3z M33.3,9.8V64l11.3-8.6
		c1.8-1.2,3.3-4.1,3.3-6.3V3c0-2.3-1.5-3-3.3-1.8L33.3,9.8z M40,61.7l20.2-7.3c2.1-0.7,3.8-3.1,3.8-5.4V3c0-2.3-1.7-3.5-3.8-2.8
		l-9.5,4.1v46.1c0,2.3-1.5,5.1-3.3,6.3L40,61.7z"/>
</g>
</svg>
