<?xml version="1.0" encoding="utf-8"?>
<!-- Generator: Adobe Illustrator 22.1.0, SVG Export Plug-In . SVG Version: 6.00 Build 0)  -->
<svg version="1.1" id="Layer_1" xmlns="http://www.w3.org/2000/svg" xmlns:xlink="http://www.w3.org/1999/xlink" x="0px" y="0px"
	 width="64px" height="64px" viewBox="0 0 64 64" style="enable-background:new 0 0 64 64;" xml:space="preserve">
<style type="text/css">
	.st0{fill:none;stroke:#FFFFFF;stroke-width:1.3;stroke-linejoin:round;}
</style>
<title>project_management_gray</title>
<g id="_6-Planning">
	<path class="st0" d="M3,1h58c1.1,0,2,0.9,2,2v58c0,1.1-0.9,2-2,2H3c-1.1,0-2-0.9-2-2V3C1,1.9,1.9,1,3,1z"/>
	<line class="st0" x1="1" y1="9" x2="63" y2="9"/>
	<line class="st0" x1="4" y1="5" x2="6" y2="5"/>
	<line class="st0" x1="8" y1="5" x2="10" y2="5"/>
	<line class="st0" x1="58" y1="5" x2="60" y2="5"/>
	<path class="st0" d="M24,13h16c0.6,0,1,0.4,1,1v8c0,0.6-0.4,1-1,1H24c-0.6,0-1-0.4-1-1v-8C23,13.4,23.4,13,24,13z"/>
	<path class="st0" d="M24,28h16c0.6,0,1,0.4,1,1v8c0,0.6-0.4,1-1,1H24c-0.6,0-1-0.4-1-1v-8C23,28.4,23.4,28,24,28z"/>
	<path class="st0" d="M28,49h8c0.6,0,1,0.4,1,1v8c0,0.6-0.4,1-1,1h-8c-0.6,0-1-0.4-1-1v-8C27,49.4,27.4,49,28,49z"/>
	<path class="st0" d="M44,49h8c0.6,0,1,0.4,1,1v8c0,0.6-0.4,1-1,1h-8c-0.6,0-1-0.4-1-1v-8C43,49.4,43.4,49,44,49z"/>
	<path class="st0" d="M12,49h8c0.6,0,1,0.4,1,1v8c0,0.6-0.4,1-1,1h-8c-0.6,0-1-0.4-1-1v-8C11,49.4,11.4,49,12,49z"/>
	<polyline class="st0" points="16,49 16,42 48,42 48,49 	"/>
	<line class="st0" x1="32" y1="23" x2="32" y2="28"/>
	<line class="st0" x1="32" y1="38" x2="32" y2="49"/>
	<line class="st0" x1="12" y1="58" x2="20" y2="50"/>
	<line class="st0" x1="28" y1="58" x2="36" y2="50"/>
	<line class="st0" x1="44" y1="58" x2="52" y2="50"/>
	<line class="st0" x1="26" y1="18" x2="34" y2="18"/>
	<line class="st0" x1="36" y1="18" x2="38" y2="18"/>
	<line class="st0" x1="26" y1="33" x2="34" y2="33"/>
	<line class="st0" x1="36" y1="33" x2="38" y2="33"/>
	<polyline class="st0" points="9,13 5,13 5,17 	"/>
	<polyline class="st0" points="59,17 59,13 55,13 	"/>
</g>
</svg>
