<?xml version="1.0" encoding="utf-8"?>
<!-- Generator: Adobe Illustrator 22.1.0, SVG Export Plug-In . SVG Version: 6.00 Build 0)  -->
<svg version="1.1" id="Layer_1" xmlns="http://www.w3.org/2000/svg" xmlns:xlink="http://www.w3.org/1999/xlink" x="0px" y="0px"
	 width="125px" height="125px" viewBox="0 0 125 125" style="enable-background:new 0 0 125 125;" xml:space="preserve">
<style type="text/css">
	.st0{fill:#FFFFFF;}
</style>
<g>
	<path class="st0" d="M53.3,45c3.9,0,7.1-3.2,7.1-7.1s-3.2-7.1-7.1-7.1s-7.1,3.2-7.1,7.1S49.4,45,53.3,45z M53.3,35.4
		c1.3,0,2.4,1.1,2.4,2.4c0,1.3-1.1,2.4-2.4,2.4s-2.4-1.1-2.4-2.4C50.9,36.5,52,35.4,53.3,35.4z"/>
	<path class="st0" d="M99.2,10.5H25.8c-1.7,0-3.1,1.4-3.1,3.1v97.8c0,1.7,1.4,3.1,3.1,3.1h73.4c1.7,0,3.1-1.4,3.1-3.1V13.6
		C102.2,11.9,100.9,10.5,99.2,10.5z M96.1,108.3H28.9V16.7h67.2V108.3L96.1,108.3z"/>
	<path class="st0" d="M36.9,64.2h32.9c1.5,0,2.7-1.2,2.7-2.7v-37c0-1.5-1.2-2.7-2.7-2.7H36.9c-1.5,0-2.7,1.2-2.7,2.7v37
		C34.2,63,35.4,64.2,36.9,64.2z M60.5,58.8H56l3.3-9.2c0.7,0.4,1.1,1.2,1.1,2L60.5,58.8L60.5,58.8z M46.1,58.8v-7.2
		c0-0.8,0.4-1.6,1.1-2l3.3,9.2H46.1z M39.6,27.2H67v31.5h-1.8v-7.2c0-3.1-1.9-5.8-4.8-6.7c0,0,0,0-0.1,0l-1.7-0.5
		c-1.2-0.4-2.5,0.3-2.9,1.5l-2.4,6.6l-2.4-6.6c-0.4-1.2-1.7-1.8-2.9-1.5l-1.7,0.5c0,0,0,0-0.1,0c-2.9,1-4.8,3.7-4.8,6.7v7.2h-1.8
		C39.6,58.8,39.6,27.2,39.6,27.2z"/>
	<path class="st0" d="M87,71.7H36.7c-1.7,0-3.1,1.4-3.1,3.1s1.4,3.1,3.1,3.1H87c1.7,0,3.1-1.4,3.1-3.1C90,73,88.6,71.7,87,71.7z"/>
	<path class="st0" d="M80.8,53.3H87c1.7,0,3.1-1.4,3.1-3.1s-1.4-3.1-3.1-3.1h-6.1c-1.7,0-3.1,1.4-3.1,3.1S79.1,53.3,80.8,53.3z"/>
	<path class="st0" d="M80.8,41.1H87c1.7,0,3.1-1.4,3.1-3.1s-1.5-3-3.1-3h-6.1c-1.7,0-3.1,1.4-3.1,3.1S79.1,41.1,80.8,41.1z"/>
	<path class="st0" d="M87,90H36.7c-1.7,0-3.1,1.4-3.1,3.1s1.4,3.1,3.1,3.1H87c1.7,0,3.1-1.4,3.1-3.1C90,91.4,88.6,90,87,90z"/>
</g>
</svg>
