<?xml version="1.0" encoding="utf-8"?>
<!-- Generator: Adobe Illustrator 22.1.0, SVG Export Plug-In . SVG Version: 6.00 Build 0)  -->
<svg version="1.1" id="Layer_1" xmlns="http://www.w3.org/2000/svg" xmlns:xlink="http://www.w3.org/1999/xlink" x="0px" y="0px"
	 width="64px" height="64px" viewBox="0 0 64 64" style="enable-background:new 0 0 64 64;" xml:space="preserve">
<style type="text/css">
	.st0{fill:#424242;}
</style>
<g>
	<polygon class="st0" points="22.5,29.9 26.1,29.9 26.1,33.5 27.3,33.5 27.3,22.6 27.3,21.3 22.5,21.3 22.5,22.6 26.1,22.6 
		26.1,28.6 22.5,28.6 22.5,22.6 21.3,22.6 21.3,33.5 22.5,33.5 	"/>
	<polygon class="st0" points="30.8,29.9 35.6,29.9 35.6,22.6 34.4,22.6 34.4,28.6 30.8,28.6 30.8,22.6 34.4,22.6 34.4,21.3 
		29.6,21.3 29.6,33.5 30.8,33.5 	"/>
	<polygon class="st0" points="41.5,32.3 40.3,32.3 40.3,22.6 41.5,22.6 41.5,21.3 37.9,21.3 37.9,22.6 39.1,22.6 39.1,32.3 
		37.9,32.3 37.9,33.5 41.5,33.5 	"/>
	<path class="st0" d="M16.6,4.8v4.6l5.9,4.9v3.4h-4.7v3.7h-5.6l-3.2-4c0.3-0.4,0.5-0.9,0.5-1.5c0-1.3-1.1-2.4-2.4-2.4
		s-2.4,1.1-2.4,2.4s1.1,2.4,2.4,2.4c0.3,0,0.6-0.1,0.9-0.2l3.5,4.5h6.2V25h-7.4l-2.1,2.2c-0.4-0.2-0.8-0.3-1.2-0.3
		c-1.3,0-2.4,1.1-2.4,2.4s1.1,2.4,2.4,2.4s2.4-1.1,2.4-2.4c0-0.5-0.1-0.9-0.3-1.2l1.8-1.8h6.9v6.1h-7.4l-2.1,2.2
		c-0.4-0.2-0.8-0.3-1.2-0.3c-1.3,0-2.4,1.1-2.4,2.4c0,1.3,1.1,2.4,2.4,2.4s2.4-1.1,2.4-2.4c0-0.5-0.1-0.9-0.3-1.2l1.8-1.8h6.9v3.7
		h4.7v1.2c-1,0.3-1.8,1.2-1.8,2.4c0,1.3,1.1,2.4,2.4,2.4s2.4-1.1,2.4-2.4c0-1.1-0.8-2.1-1.8-2.4v-1.2h4.7v1.2
		c-1,0.3-1.8,1.2-1.8,2.4c0,1.3,1.1,2.4,2.4,2.4s2.4-1.1,2.4-2.4c0-1.1-0.8-2.1-1.8-2.4v-1.2h4.7v1.2c-1,0.3-1.8,1.2-1.8,2.4
		c0,1.3,1.1,2.4,2.4,2.4s2.4-1.1,2.4-2.4c0-1.1-0.8-2.1-1.8-2.4v-1.2h4.7v1.2c-1,0.3-1.8,1.2-1.8,2.4c0,1.3,1.1,2.4,2.4,2.4
		s2.4-1.1,2.4-2.4c0-1.1-0.8-2.1-1.8-2.4v-1.2h4.7v-3.7h6.9l1.8,1.8c-0.2,0.4-0.3,0.8-0.3,1.2c0,1.3,1.1,2.4,2.4,2.4
		s2.4-1.1,2.4-2.4c0-1.3-1.1-2.4-2.4-2.4c-0.4,0-0.8,0.1-1.2,0.3l-2.1-2.2h-7.4v-2.4h7.4l1.8-1.8c0.4,0.4,0.9,0.6,1.5,0.6
		c1.3,0,2.4-1.1,2.4-2.4s-1.1-2.4-2.4-2.4s-2.4,1.1-2.4,2.4c0,0.3,0.1,0.6,0.2,0.9l-1.6,1.6h-6.9v-6.1h6.2l3.5-4.5
		c0.3,0.1,0.6,0.2,0.9,0.2c1.3,0,2.4-1.1,2.4-2.4s-1.1-2.4-2.4-2.4s-2.4,1.1-2.4,2.4c0,0.6,0.2,1.1,0.5,1.5l-3.2,4h-5.6v-3.7h-4.7
		v-3.4l5.9-4.9V4.8c1-0.3,1.8-1.2,1.8-2.4c0-1.3-1.1-2.4-2.4-2.4s-2.4,1.1-2.4,2.4c0,1.1,0.8,2.1,1.8,2.4v4.1l-5.9,4.9v3.9h-4.7
		v-5.8l5.9-4.8V4.8c1-0.3,1.8-1.2,1.8-2.4c0-1.3-1.1-2.4-2.4-2.4s-2.4,1.1-2.4,2.4c0,1.1,0.8,2.1,1.8,2.4v1.7l-5.9,4.8v6.4h-4.7
		v-6.4l-5.9-4.8V4.8c1-0.3,1.8-1.2,1.8-2.4c0-1.3-1.1-2.4-2.4-2.4s-2.4,1.1-2.4,2.4c0,1.1,0.8,2.1,1.8,2.4v2.3l5.9,4.8v5.8h-4.7
		v-3.9l-5.9-4.9V4.8c1-0.3,1.8-1.2,1.8-2.4c0-1.3-1.1-2.4-2.4-2.4s-2.4,1.1-2.4,2.4C14.8,3.6,15.6,4.5,16.6,4.8z M7.1,17.1
		c-0.7,0-1.2-0.5-1.2-1.2c0-0.7,0.5-1.2,1.2-1.2s1.2,0.5,1.2,1.2C8.3,16.5,7.8,17.1,7.1,17.1z M7.1,30.5c-0.7,0-1.2-0.5-1.2-1.2
		S6.5,28,7.1,28s1.2,0.5,1.2,1.2S7.8,30.5,7.1,30.5z M7.1,37.8c-0.7,0-1.2-0.5-1.2-1.2c0-0.7,0.5-1.2,1.2-1.2s1.2,0.5,1.2,1.2
		C8.3,37.2,7.8,37.8,7.1,37.8z M56.9,35.4c0.7,0,1.2,0.5,1.2,1.2c0,0.7-0.5,1.2-1.2,1.2s-1.2-0.5-1.2-1.2
		C55.7,35.9,56.2,35.4,56.9,35.4z M56.9,25c0.7,0,1.2,0.5,1.2,1.2s-0.5,1.2-1.2,1.2s-1.2-0.5-1.2-1.2S56.2,25,56.9,25z M56.9,14.6
		c0.7,0,1.2,0.5,1.2,1.2c0,0.7-0.5,1.2-1.2,1.2s-1.2-0.5-1.2-1.2C55.7,15.2,56.2,14.6,56.9,14.6z M45.6,2.4c0-0.7,0.5-1.2,1.2-1.2
		S48,1.8,48,2.4s-0.5,1.2-1.2,1.2S45.6,3.1,45.6,2.4z M39.7,2.4c0-0.7,0.5-1.2,1.2-1.2s1.2,0.5,1.2,1.2s-0.5,1.2-1.2,1.2
		S39.7,3.1,39.7,2.4z M21.9,2.4c0-0.7,0.5-1.2,1.2-1.2s1.2,0.5,1.2,1.2s-0.5,1.2-1.2,1.2S21.9,3.1,21.9,2.4z M24.3,40.8
		c0,0.7-0.5,1.2-1.2,1.2s-1.2-0.5-1.2-1.2s0.5-1.2,1.2-1.2S24.3,40.1,24.3,40.8z M30.2,40.8c0,0.7-0.5,1.2-1.2,1.2s-1.2-0.5-1.2-1.2
		s0.5-1.2,1.2-1.2S30.2,40.1,30.2,40.8z M36.1,40.8c0,0.7-0.5,1.2-1.2,1.2s-1.2-0.5-1.2-1.2s0.5-1.2,1.2-1.2S36.1,40.1,36.1,40.8z
		 M42.1,40.8c0,0.7-0.5,1.2-1.2,1.2s-1.2-0.5-1.2-1.2s0.5-1.2,1.2-1.2S42.1,40.1,42.1,40.8z M45,18.9v2.4v1.2v6.1v1.2v2.4v1.2V36H19
		v-2.4v-1.2v-6.1V25v-2.4v-1.2v-2.4H45z M17.2,1.2c0.7,0,1.2,0.5,1.2,1.2s-0.5,1.2-1.2,1.2S16,3.1,16,2.4S16.5,1.2,17.2,1.2z"/>
	<path class="st0" d="M61.6,6.7h-13v1.2h13c0.7,0,1.2,0.5,1.2,1.2v39H1.2v-39c0-0.7,0.5-1.2,1.2-1.2h13V6.7h-13C1.1,6.7,0,7.8,0,9.1
		v39v0.4v3.3c0,1.3,1.1,2.4,2.4,2.4h22.2l-1.7,6.1H19c-1.3,0-2.4,1.1-2.4,2.4V64h30.8v-1.2c0-1.3-1.1-2.4-2.4-2.4h-3.9l-1.7-6.1
		h22.2c1.3,0,2.4-1.1,2.4-2.4v-2.7v-1v-39C64,7.8,62.9,6.7,61.6,6.7z M41.5,61.6H45c0.7,0,1.2,0.5,1.2,1.2H17.8
		c0-0.7,0.5-1.2,1.2-1.2h3.6H41.5z M39.9,60.3H24.1l1.7-6.1h12.4L39.9,60.3z M62.8,51.8c0,0.7-0.5,1.2-1.2,1.2H39.1H24.9H2.4
		c-0.7,0-1.2-0.5-1.2-1.2v-2.4h61.6V51.8z"/>
	<polygon class="st0" points="19,6.7 19,7.9 21.6,7.9 21.3,7.7 21.3,6.7 	"/>
	<polygon class="st0" points="36.6,7.9 38.1,6.7 25.9,6.7 27.4,7.9 	"/>
	<polygon class="st0" points="45,6.7 42.7,6.7 42.7,7.7 42.4,7.9 45,7.9 	"/>
	<polygon class="st0" points="33.6,10.4 35.1,9.1 28.9,9.1 30.4,10.4 	"/>
	<polygon class="st0" points="2.4,9.1 2.4,45.7 61.6,45.7 61.6,9.1 48.6,9.1 48.6,10 48.2,10.4 60.4,10.4 60.4,44.5 3.6,44.5 
		3.6,10.4 15.8,10.4 15.4,10 15.4,9.1 	"/>
	<polygon class="st0" points="24.6,10.4 23.1,9.1 20,9.1 21.5,10.4 	"/>
	<polygon class="st0" points="39.4,10.4 42.5,10.4 44,9.1 40.9,9.1 	"/>
</g>
</svg>
